<mxfile host="app.diagrams.net" agent="Mozilla/5.0 (Windows NT 10.0; Win64; x64) AppleWebKit/537.36 (KHTML, like Gecko) Chrome/134.0.0.0 Safari/537.36" version="26.1.3">
  <diagram id="6a731a19-8d31-9384-78a2-239565b7b9f0" name="Page-1">
    <mxGraphModel grid="0" page="1" gridSize="10" guides="1" tooltips="1" connect="1" arrows="1" fold="1" pageScale="1" pageWidth="1654" pageHeight="1169" background="none" math="0" shadow="0">
      <root>
        <mxCell id="0" />
        <mxCell id="1" parent="0" />
        <mxCell id="pV_ENtJMJlO4xu-01SIK-55" value="&lt;font&gt;Check System Requirements&lt;/font&gt;" style="rounded=1;whiteSpace=wrap;html=1;fontSize=15;" vertex="1" parent="1">
          <mxGeometry x="129" y="236" width="120" height="60" as="geometry" />
        </mxCell>
        <mxCell id="pV_ENtJMJlO4xu-01SIK-56" value="&lt;span data-teams=&quot;true&quot;&gt;&lt;b&gt;&lt;font style=&quot;font-size: 30px;&quot;&gt;Installations, setups and usage&lt;/font&gt;&lt;/b&gt;&lt;/span&gt;" style="text;html=1;align=center;verticalAlign=middle;resizable=0;points=[];autosize=1;strokeColor=none;fillColor=none;" vertex="1" parent="1">
          <mxGeometry x="557" y="46" width="463" height="48" as="geometry" />
        </mxCell>
        <mxCell id="k2T-g_htHbja577PyHqE-17" style="edgeStyle=orthogonalEdgeStyle;rounded=0;orthogonalLoop=1;jettySize=auto;html=1;exitX=0.5;exitY=1;exitDx=0;exitDy=0;" edge="1" parent="1">
          <mxGeometry relative="1" as="geometry">
            <mxPoint x="74" y="488" as="sourcePoint" />
            <mxPoint x="74" y="525" as="targetPoint" />
          </mxGeometry>
        </mxCell>
        <mxCell id="pV_ENtJMJlO4xu-01SIK-57" value="&lt;font&gt;Enable and configure WSL&amp;nbsp;&lt;/font&gt;" style="rounded=1;whiteSpace=wrap;html=1;fontSize=15;" vertex="1" parent="1">
          <mxGeometry x="18" y="435" width="120" height="60" as="geometry" />
        </mxCell>
        <mxCell id="k2T-g_htHbja577PyHqE-21" style="edgeStyle=orthogonalEdgeStyle;rounded=0;orthogonalLoop=1;jettySize=auto;html=1;exitX=0.5;exitY=1;exitDx=0;exitDy=0;entryX=0;entryY=0.5;entryDx=0;entryDy=0;" edge="1" parent="1" source="pV_ENtJMJlO4xu-01SIK-58" target="pV_ENtJMJlO4xu-01SIK-59">
          <mxGeometry relative="1" as="geometry" />
        </mxCell>
        <mxCell id="pV_ENtJMJlO4xu-01SIK-58" value="Install Ubuntu&amp;nbsp;" style="rounded=1;whiteSpace=wrap;html=1;fontSize=15;" vertex="1" parent="1">
          <mxGeometry x="19" y="527" width="120" height="60" as="geometry" />
        </mxCell>
        <mxCell id="pV_ENtJMJlO4xu-01SIK-112" style="edgeStyle=orthogonalEdgeStyle;rounded=0;orthogonalLoop=1;jettySize=auto;html=1;exitX=0.5;exitY=1;exitDx=0;exitDy=0;fontSize=15;" edge="1" parent="1" source="pV_ENtJMJlO4xu-01SIK-59" target="pV_ENtJMJlO4xu-01SIK-60">
          <mxGeometry relative="1" as="geometry" />
        </mxCell>
        <mxCell id="pV_ENtJMJlO4xu-01SIK-59" value="Install Docker" style="rounded=1;whiteSpace=wrap;html=1;fontSize=15;" vertex="1" parent="1">
          <mxGeometry x="211" y="580" width="120" height="60" as="geometry" />
        </mxCell>
        <mxCell id="pV_ENtJMJlO4xu-01SIK-113" style="edgeStyle=orthogonalEdgeStyle;rounded=0;orthogonalLoop=1;jettySize=auto;html=1;exitX=0.5;exitY=1;exitDx=0;exitDy=0;entryX=0;entryY=0.5;entryDx=0;entryDy=0;fontSize=15;" edge="1" parent="1" source="pV_ENtJMJlO4xu-01SIK-60" target="pV_ENtJMJlO4xu-01SIK-61">
          <mxGeometry relative="1" as="geometry" />
        </mxCell>
        <mxCell id="pV_ENtJMJlO4xu-01SIK-60" value="Install Git" style="rounded=1;whiteSpace=wrap;html=1;fontSize=15;" vertex="1" parent="1">
          <mxGeometry x="45" y="636" width="120" height="60" as="geometry" />
        </mxCell>
        <mxCell id="pV_ENtJMJlO4xu-01SIK-114" style="edgeStyle=orthogonalEdgeStyle;rounded=0;orthogonalLoop=1;jettySize=auto;html=1;exitX=0.5;exitY=1;exitDx=0;exitDy=0;entryX=1;entryY=0.5;entryDx=0;entryDy=0;fontSize=15;" edge="1" parent="1" source="pV_ENtJMJlO4xu-01SIK-61" target="pV_ENtJMJlO4xu-01SIK-62">
          <mxGeometry relative="1" as="geometry" />
        </mxCell>
        <mxCell id="pV_ENtJMJlO4xu-01SIK-61" value="Install Github CLI (gh)" style="rounded=1;whiteSpace=wrap;html=1;fontSize=15;" vertex="1" parent="1">
          <mxGeometry x="208" y="704" width="120" height="60" as="geometry" />
        </mxCell>
        <mxCell id="pV_ENtJMJlO4xu-01SIK-115" style="edgeStyle=orthogonalEdgeStyle;rounded=0;orthogonalLoop=1;jettySize=auto;html=1;exitX=0.5;exitY=1;exitDx=0;exitDy=0;entryX=0;entryY=0.5;entryDx=0;entryDy=0;fontSize=15;" edge="1" parent="1" source="pV_ENtJMJlO4xu-01SIK-62" target="pV_ENtJMJlO4xu-01SIK-63">
          <mxGeometry relative="1" as="geometry" />
        </mxCell>
        <mxCell id="pV_ENtJMJlO4xu-01SIK-62" value="Install&amp;nbsp; Python and pip" style="rounded=1;whiteSpace=wrap;html=1;fontSize=15;" vertex="1" parent="1">
          <mxGeometry x="45" y="764" width="120" height="60" as="geometry" />
        </mxCell>
        <mxCell id="9jLViu0mf0XPeVJ8ESHT-2" style="edgeStyle=orthogonalEdgeStyle;rounded=0;orthogonalLoop=1;jettySize=auto;html=1;exitX=0.5;exitY=1;exitDx=0;exitDy=0;entryX=1;entryY=0.5;entryDx=0;entryDy=0;" edge="1" parent="1" source="pV_ENtJMJlO4xu-01SIK-63" target="pV_ENtJMJlO4xu-01SIK-65">
          <mxGeometry relative="1" as="geometry" />
        </mxCell>
        <mxCell id="pV_ENtJMJlO4xu-01SIK-63" value="Install Kubernetes CLI" style="rounded=1;whiteSpace=wrap;html=1;fontSize=15;" vertex="1" parent="1">
          <mxGeometry x="208" y="831" width="120" height="60" as="geometry" />
        </mxCell>
        <mxCell id="pV_ENtJMJlO4xu-01SIK-65" value="Install Jupyter Notebook" style="rounded=1;whiteSpace=wrap;html=1;fontSize=15;" vertex="1" parent="1">
          <mxGeometry x="45" y="888" width="120" height="60" as="geometry" />
        </mxCell>
        <mxCell id="pV_ENtJMJlO4xu-01SIK-67" value="&lt;font&gt;&lt;b&gt;Pre - Installation Setup&lt;/b&gt;&lt;/font&gt;" style="rounded=0;whiteSpace=wrap;html=1;rotation=0;fontSize=16;" vertex="1" parent="1">
          <mxGeometry x="85" y="147" width="200" height="60" as="geometry" />
        </mxCell>
        <mxCell id="pV_ENtJMJlO4xu-01SIK-118" style="edgeStyle=orthogonalEdgeStyle;rounded=0;orthogonalLoop=1;jettySize=auto;html=1;exitX=0.5;exitY=1;exitDx=0;exitDy=0;entryX=0.5;entryY=0;entryDx=0;entryDy=0;fontSize=15;" edge="1" parent="1" source="pV_ENtJMJlO4xu-01SIK-68" target="pV_ENtJMJlO4xu-01SIK-69">
          <mxGeometry relative="1" as="geometry" />
        </mxCell>
        <mxCell id="pV_ENtJMJlO4xu-01SIK-68" value="Clone the main repository to your local folder" style="rounded=1;whiteSpace=wrap;html=1;fontSize=15;" vertex="1" parent="1">
          <mxGeometry x="383" y="235" width="125" height="60" as="geometry" />
        </mxCell>
        <mxCell id="pV_ENtJMJlO4xu-01SIK-69" value="Authentication with Github" style="rounded=1;whiteSpace=wrap;html=1;fontSize=15;" vertex="1" parent="1">
          <mxGeometry x="385" y="344" width="120" height="60" as="geometry" />
        </mxCell>
        <mxCell id="pV_ENtJMJlO4xu-01SIK-71" value="Run setup script" style="rounded=1;whiteSpace=wrap;html=1;fontSize=15;" vertex="1" parent="1">
          <mxGeometry x="629" y="236" width="120" height="60" as="geometry" />
        </mxCell>
        <mxCell id="pV_ENtJMJlO4xu-01SIK-72" value="Verify Kubernetes pods" style="rounded=1;whiteSpace=wrap;html=1;fontSize=15;dashed=1;dashPattern=8 8;" vertex="1" parent="1">
          <mxGeometry x="627" y="346" width="120" height="60" as="geometry" />
        </mxCell>
        <mxCell id="pV_ENtJMJlO4xu-01SIK-125" style="edgeStyle=orthogonalEdgeStyle;rounded=0;orthogonalLoop=1;jettySize=auto;html=1;exitX=0.5;exitY=1;exitDx=0;exitDy=0;entryX=0.5;entryY=0;entryDx=0;entryDy=0;fontSize=15;" edge="1" parent="1" source="pV_ENtJMJlO4xu-01SIK-73" target="pV_ENtJMJlO4xu-01SIK-74">
          <mxGeometry relative="1" as="geometry">
            <mxPoint x="926" y="341" as="targetPoint" />
          </mxGeometry>
        </mxCell>
        <mxCell id="pV_ENtJMJlO4xu-01SIK-73" value="Forward the pods&#39;&amp;nbsp;&lt;span style=&quot;background-color: initial;&quot;&gt;ports&lt;/span&gt;" style="rounded=1;whiteSpace=wrap;html=1;fontSize=15;" vertex="1" parent="1">
          <mxGeometry x="866.5" y="236" width="120" height="60" as="geometry" />
        </mxCell>
        <mxCell id="pV_ENtJMJlO4xu-01SIK-74" value="Test the ML pipeline with Jupyter Notebook" style="rounded=1;whiteSpace=wrap;html=1;fontSize=15;dashed=1;dashPattern=8 8;" vertex="1" parent="1">
          <mxGeometry x="866.5" y="345" width="120" height="60" as="geometry" />
        </mxCell>
        <mxCell id="pV_ENtJMJlO4xu-01SIK-78" value="&lt;font&gt;&lt;b&gt;Installing local MLOps platform&lt;/b&gt;&lt;/font&gt;" style="rounded=0;whiteSpace=wrap;html=1;rotation=0;fontSize=16;" vertex="1" parent="1">
          <mxGeometry x="609.5" y="147" width="161" height="60" as="geometry" />
        </mxCell>
        <mxCell id="pV_ENtJMJlO4xu-01SIK-80" value="&lt;b&gt;&lt;font&gt;Portforwarding the Kubeflow pods&lt;/font&gt;&lt;/b&gt;" style="rounded=0;whiteSpace=wrap;html=1;rotation=0;fontSize=16;" vertex="1" parent="1">
          <mxGeometry x="858" y="147" width="137" height="60" as="geometry" />
        </mxCell>
        <mxCell id="pV_ENtJMJlO4xu-01SIK-84" style="edgeStyle=orthogonalEdgeStyle;rounded=0;orthogonalLoop=1;jettySize=auto;html=1;exitX=0.5;exitY=1;exitDx=0;exitDy=0;fontSize=15;" edge="1" parent="1">
          <mxGeometry relative="1" as="geometry">
            <mxPoint x="110" y="579.9999999999999" as="sourcePoint" />
            <mxPoint x="110" y="579.9999999999999" as="targetPoint" />
          </mxGeometry>
        </mxCell>
        <mxCell id="pV_ENtJMJlO4xu-01SIK-85" value="&lt;font&gt;&lt;b&gt;Cloning the tooling repo &amp;amp; gh authentication&lt;/b&gt;&lt;/font&gt;" style="rounded=0;whiteSpace=wrap;html=1;fontSize=16;" vertex="1" parent="1">
          <mxGeometry x="366" y="147" width="159" height="60" as="geometry" />
        </mxCell>
        <mxCell id="pV_ENtJMJlO4xu-01SIK-87" value="&lt;font&gt;Setup repositories and CI/CD pipelines with the tool&lt;/font&gt;" style="rounded=0;whiteSpace=wrap;html=1;fontStyle=1;fontSize=16;" vertex="1" parent="1">
          <mxGeometry x="1064" y="147" width="162" height="66" as="geometry" />
        </mxCell>
        <mxCell id="pV_ENtJMJlO4xu-01SIK-88" value="&lt;font&gt;Start the ML pipeline run on MLOps platform&lt;/font&gt;" style="rounded=0;whiteSpace=wrap;html=1;fontStyle=1;fontSize=16;" vertex="1" parent="1">
          <mxGeometry x="1500" y="147" width="133" height="60" as="geometry" />
        </mxCell>
        <mxCell id="pV_ENtJMJlO4xu-01SIK-89" value="&lt;font&gt;Setup Github Actions Runner&lt;/font&gt;" style="rounded=0;whiteSpace=wrap;html=1;fontStyle=1;fontSize=16;" vertex="1" parent="1">
          <mxGeometry x="1300" y="147" width="120" height="60" as="geometry" />
        </mxCell>
        <mxCell id="pV_ENtJMJlO4xu-01SIK-96" value="" style="shape=flexArrow;endArrow=classic;html=1;rounded=0;fontSize=16;" edge="1" parent="1" source="pV_ENtJMJlO4xu-01SIK-67" target="pV_ENtJMJlO4xu-01SIK-85">
          <mxGeometry width="50" height="50" relative="1" as="geometry">
            <mxPoint x="310" y="200" as="sourcePoint" />
            <mxPoint x="360" y="150" as="targetPoint" />
          </mxGeometry>
        </mxCell>
        <mxCell id="pV_ENtJMJlO4xu-01SIK-97" value="" style="shape=flexArrow;endArrow=classic;html=1;rounded=0;fontSize=16;width=10;endSize=7.24;" edge="1" parent="1" source="pV_ENtJMJlO4xu-01SIK-85" target="pV_ENtJMJlO4xu-01SIK-78">
          <mxGeometry width="50" height="50" relative="1" as="geometry">
            <mxPoint x="522" y="180" as="sourcePoint" />
            <mxPoint x="610" y="180" as="targetPoint" />
          </mxGeometry>
        </mxCell>
        <mxCell id="pV_ENtJMJlO4xu-01SIK-100" value="" style="shape=flexArrow;endArrow=classic;html=1;rounded=0;fontSize=16;" edge="1" parent="1" source="pV_ENtJMJlO4xu-01SIK-78" target="pV_ENtJMJlO4xu-01SIK-80">
          <mxGeometry width="50" height="50" relative="1" as="geometry">
            <mxPoint x="766" y="180" as="sourcePoint" />
            <mxPoint x="856" y="180" as="targetPoint" />
          </mxGeometry>
        </mxCell>
        <mxCell id="pV_ENtJMJlO4xu-01SIK-101" value="" style="shape=flexArrow;endArrow=classic;html=1;rounded=0;fontSize=16;" edge="1" parent="1" source="pV_ENtJMJlO4xu-01SIK-80">
          <mxGeometry width="50" height="50" relative="1" as="geometry">
            <mxPoint x="994" y="180" as="sourcePoint" />
            <mxPoint x="1065" y="180" as="targetPoint" />
          </mxGeometry>
        </mxCell>
        <mxCell id="pV_ENtJMJlO4xu-01SIK-102" value="" style="shape=flexArrow;endArrow=classic;html=1;rounded=0;fontStyle=1;fontSize=16;" edge="1" parent="1" target="pV_ENtJMJlO4xu-01SIK-89">
          <mxGeometry width="50" height="50" relative="1" as="geometry">
            <mxPoint x="1227" y="177" as="sourcePoint" />
            <mxPoint x="1301" y="182" as="targetPoint" />
          </mxGeometry>
        </mxCell>
        <mxCell id="pV_ENtJMJlO4xu-01SIK-103" value="" style="shape=flexArrow;endArrow=classic;html=1;rounded=0;fontStyle=1;fontSize=16;" edge="1" parent="1" source="pV_ENtJMJlO4xu-01SIK-89" target="pV_ENtJMJlO4xu-01SIK-88">
          <mxGeometry width="50" height="50" relative="1" as="geometry">
            <mxPoint x="1420" y="182" as="sourcePoint" />
            <mxPoint x="1499" y="181" as="targetPoint" />
          </mxGeometry>
        </mxCell>
        <mxCell id="k2T-g_htHbja577PyHqE-25" style="edgeStyle=orthogonalEdgeStyle;rounded=0;orthogonalLoop=1;jettySize=auto;html=1;exitX=0.5;exitY=1;exitDx=0;exitDy=0;entryX=0.75;entryY=0;entryDx=0;entryDy=0;" edge="1" parent="1" source="k2T-g_htHbja577PyHqE-1" target="pV_ENtJMJlO4xu-01SIK-59">
          <mxGeometry relative="1" as="geometry" />
        </mxCell>
        <mxCell id="k2T-g_htHbja577PyHqE-1" value="&lt;font style=&quot;font-size: 15px;&quot;&gt;Install Homebrew&lt;/font&gt;" style="rounded=1;whiteSpace=wrap;html=1;" vertex="1" parent="1">
          <mxGeometry x="241" y="430" width="120" height="60" as="geometry" />
        </mxCell>
        <mxCell id="k2T-g_htHbja577PyHqE-3" value="" style="endArrow=none;html=1;rounded=0;" edge="1" parent="1">
          <mxGeometry width="50" height="50" relative="1" as="geometry">
            <mxPoint x="71" y="341" as="sourcePoint" />
            <mxPoint x="71" y="311" as="targetPoint" />
          </mxGeometry>
        </mxCell>
        <mxCell id="k2T-g_htHbja577PyHqE-4" value="&lt;font style=&quot;font-size: 15px;&quot;&gt;Windows&lt;/font&gt;" style="ellipse;whiteSpace=wrap;html=1;" vertex="1" parent="1">
          <mxGeometry x="25" y="341" width="90" height="55" as="geometry" />
        </mxCell>
        <mxCell id="k2T-g_htHbja577PyHqE-5" value="" style="endArrow=none;html=1;rounded=0;" edge="1" parent="1">
          <mxGeometry width="50" height="50" relative="1" as="geometry">
            <mxPoint x="190" y="343" as="sourcePoint" />
            <mxPoint x="190" y="313" as="targetPoint" />
          </mxGeometry>
        </mxCell>
        <mxCell id="k2T-g_htHbja577PyHqE-6" value="" style="endArrow=none;html=1;rounded=0;" edge="1" parent="1">
          <mxGeometry width="50" height="50" relative="1" as="geometry">
            <mxPoint x="300" y="343" as="sourcePoint" />
            <mxPoint x="300" y="313" as="targetPoint" />
          </mxGeometry>
        </mxCell>
        <mxCell id="k2T-g_htHbja577PyHqE-7" value="&lt;span style=&quot;font-size: 15px;&quot;&gt;Linux&lt;/span&gt;" style="ellipse;whiteSpace=wrap;html=1;" vertex="1" parent="1">
          <mxGeometry x="145" y="341" width="90" height="55" as="geometry" />
        </mxCell>
        <mxCell id="k2T-g_htHbja577PyHqE-8" value="&lt;font style=&quot;font-size: 15px;&quot;&gt;Mac&lt;/font&gt;" style="ellipse;whiteSpace=wrap;html=1;" vertex="1" parent="1">
          <mxGeometry x="257" y="345.5" width="90" height="55" as="geometry" />
        </mxCell>
        <mxCell id="k2T-g_htHbja577PyHqE-9" value="" style="endArrow=none;html=1;rounded=0;" edge="1" parent="1">
          <mxGeometry width="50" height="50" relative="1" as="geometry">
            <mxPoint x="70" y="312" as="sourcePoint" />
            <mxPoint x="300" y="312" as="targetPoint" />
          </mxGeometry>
        </mxCell>
        <mxCell id="k2T-g_htHbja577PyHqE-10" value="" style="endArrow=none;html=1;rounded=0;" edge="1" parent="1">
          <mxGeometry width="50" height="50" relative="1" as="geometry">
            <mxPoint x="190" y="325" as="sourcePoint" />
            <mxPoint x="190" y="295" as="targetPoint" />
          </mxGeometry>
        </mxCell>
        <mxCell id="k2T-g_htHbja577PyHqE-16" style="edgeStyle=orthogonalEdgeStyle;rounded=0;orthogonalLoop=1;jettySize=auto;html=1;exitX=0.5;exitY=1;exitDx=0;exitDy=0;entryX=0.411;entryY=-0.06;entryDx=0;entryDy=0;entryPerimeter=0;" edge="1" parent="1">
          <mxGeometry relative="1" as="geometry">
            <mxPoint x="300" y="401" as="sourcePoint" />
            <mxPoint x="300" y="429" as="targetPoint" />
          </mxGeometry>
        </mxCell>
        <mxCell id="k2T-g_htHbja577PyHqE-20" style="edgeStyle=orthogonalEdgeStyle;rounded=0;orthogonalLoop=1;jettySize=auto;html=1;exitX=0.5;exitY=1;exitDx=0;exitDy=0;" edge="1" parent="1">
          <mxGeometry relative="1" as="geometry">
            <mxPoint x="73" y="397" as="sourcePoint" />
            <mxPoint x="73" y="434" as="targetPoint" />
          </mxGeometry>
        </mxCell>
        <mxCell id="k2T-g_htHbja577PyHqE-26" style="edgeStyle=orthogonalEdgeStyle;rounded=0;orthogonalLoop=1;jettySize=auto;html=1;exitX=0.5;exitY=1;exitDx=0;exitDy=0;entryX=0.25;entryY=0;entryDx=0;entryDy=0;" edge="1" parent="1" source="k2T-g_htHbja577PyHqE-7" target="pV_ENtJMJlO4xu-01SIK-59">
          <mxGeometry relative="1" as="geometry">
            <mxPoint x="220" y="580" as="targetPoint" />
            <Array as="points">
              <mxPoint x="190" y="524" />
              <mxPoint x="240" y="524" />
            </Array>
          </mxGeometry>
        </mxCell>
        <mxCell id="9jLViu0mf0XPeVJ8ESHT-1" style="edgeStyle=orthogonalEdgeStyle;rounded=0;orthogonalLoop=1;jettySize=auto;html=1;exitX=0.5;exitY=1;exitDx=0;exitDy=0;entryX=0.5;entryY=0;entryDx=0;entryDy=0;fontSize=15;" edge="1" parent="1">
          <mxGeometry relative="1" as="geometry">
            <mxPoint x="689" y="346" as="targetPoint" />
            <mxPoint x="689" y="297" as="sourcePoint" />
          </mxGeometry>
        </mxCell>
        <mxCell id="9jLViu0mf0XPeVJ8ESHT-11" style="edgeStyle=orthogonalEdgeStyle;rounded=0;orthogonalLoop=1;jettySize=auto;html=1;exitX=0.5;exitY=1;exitDx=0;exitDy=0;" edge="1" parent="1" source="9jLViu0mf0XPeVJ8ESHT-3" target="9jLViu0mf0XPeVJ8ESHT-4">
          <mxGeometry relative="1" as="geometry">
            <mxPoint x="1149.4285714285716" y="450" as="targetPoint" />
          </mxGeometry>
        </mxCell>
        <mxCell id="9jLViu0mf0XPeVJ8ESHT-3" value="&lt;font style=&quot;font-size: 15px;&quot;&gt;Create the config repo&amp;nbsp;&lt;/font&gt;" style="rounded=1;whiteSpace=wrap;html=1;" vertex="1" parent="1">
          <mxGeometry x="1090" y="345.5" width="120" height="60" as="geometry" />
        </mxCell>
        <mxCell id="9jLViu0mf0XPeVJ8ESHT-13" style="edgeStyle=orthogonalEdgeStyle;rounded=0;orthogonalLoop=1;jettySize=auto;html=1;exitX=0.5;exitY=1;exitDx=0;exitDy=0;entryX=0.5;entryY=0;entryDx=0;entryDy=0;" edge="1" parent="1" source="9jLViu0mf0XPeVJ8ESHT-4" target="9jLViu0mf0XPeVJ8ESHT-6">
          <mxGeometry relative="1" as="geometry" />
        </mxCell>
        <mxCell id="9jLViu0mf0XPeVJ8ESHT-4" value="&lt;font style=&quot;font-size: 15px;&quot;&gt;Setup the environmental secrets&lt;/font&gt;" style="rounded=1;whiteSpace=wrap;html=1;" vertex="1" parent="1">
          <mxGeometry x="1090" y="453" width="120" height="60" as="geometry" />
        </mxCell>
        <mxCell id="9jLViu0mf0XPeVJ8ESHT-10" style="edgeStyle=orthogonalEdgeStyle;rounded=0;orthogonalLoop=1;jettySize=auto;html=1;exitX=0.5;exitY=1;exitDx=0;exitDy=0;entryX=0.5;entryY=0;entryDx=0;entryDy=0;" edge="1" parent="1" source="9jLViu0mf0XPeVJ8ESHT-5" target="9jLViu0mf0XPeVJ8ESHT-3">
          <mxGeometry relative="1" as="geometry" />
        </mxCell>
        <mxCell id="9jLViu0mf0XPeVJ8ESHT-5" value="&lt;font style=&quot;font-size: 15px;&quot;&gt;Create a Github organization&lt;/font&gt;" style="rounded=1;whiteSpace=wrap;html=1;" vertex="1" parent="1">
          <mxGeometry x="1090" y="236" width="120" height="60" as="geometry" />
        </mxCell>
        <mxCell id="9jLViu0mf0XPeVJ8ESHT-6" value="&lt;font style=&quot;font-size: 15px;&quot;&gt;Create the working repo&lt;/font&gt;" style="rounded=1;whiteSpace=wrap;html=1;" vertex="1" parent="1">
          <mxGeometry x="1090" y="570" width="120" height="60" as="geometry" />
        </mxCell>
        <mxCell id="9jLViu0mf0XPeVJ8ESHT-14" style="edgeStyle=orthogonalEdgeStyle;rounded=0;orthogonalLoop=1;jettySize=auto;html=1;exitX=0.5;exitY=1;exitDx=0;exitDy=0;entryX=0.5;entryY=0;entryDx=0;entryDy=0;" edge="1" parent="1" source="9jLViu0mf0XPeVJ8ESHT-7" target="9jLViu0mf0XPeVJ8ESHT-8">
          <mxGeometry relative="1" as="geometry" />
        </mxCell>
        <mxCell id="9jLViu0mf0XPeVJ8ESHT-7" value="&lt;font style=&quot;font-size: 15px;&quot;&gt;Enable the Github actions&amp;nbsp;&lt;/font&gt;" style="rounded=1;whiteSpace=wrap;html=1;" vertex="1" parent="1">
          <mxGeometry x="1300" y="236" width="120" height="60" as="geometry" />
        </mxCell>
        <mxCell id="9jLViu0mf0XPeVJ8ESHT-8" value="&lt;font style=&quot;font-size: 15px;&quot;&gt;Install the actions runner &amp;amp; associate with the repo&lt;/font&gt;" style="rounded=1;whiteSpace=wrap;html=1;" vertex="1" parent="1">
          <mxGeometry x="1294" y="347" width="132" height="84" as="geometry" />
        </mxCell>
        <mxCell id="9jLViu0mf0XPeVJ8ESHT-9" value="&lt;font style=&quot;font-size: 15px;&quot;&gt;Make a commit to the working repo&lt;/font&gt;" style="rounded=1;whiteSpace=wrap;html=1;" vertex="1" parent="1">
          <mxGeometry x="1500" y="237" width="120" height="60" as="geometry" />
        </mxCell>
      </root>
    </mxGraphModel>
  </diagram>
</mxfile>
